<?xml version="1.0" encoding="UTF-8"?>
<svg width="24px" height="24px" viewBox="0 0 24 24" version="1.1" xmlns="http://www.w3.org/2000/svg" xmlns:xlink="http://www.w3.org/1999/xlink">
    <!-- Generator: Sketch 64 (93537) - https://sketch.com -->
    <title>@1xIconly/Two-tone/Heart</title>
    <desc>Created with Sketch.</desc>
    <g id="Iconly/Two-tone/Heart" stroke="none" stroke-width="1" fill="none" fill-rule="evenodd" stroke-linecap="round" stroke-linejoin="round">
        <g id="Heart" transform="translate(2.000000, 3.000000)" stroke="#200E32" stroke-width="1.5">
            <path d="M9.74843138,17.8537669 C7.4635762,16.5178915 5.33801075,14.9456454 3.40977937,13.1651694 C2.05414476,11.8829466 1.02211105,10.3197719 0.392733296,8.59538613 C-0.739848669,5.25030481 0.583083206,1.42082647 4.28538896,0.287520227 C6.23117163,-0.307565201 8.35626245,0.0325524403 9.99588626,1.20147687 L9.99588626,1.20147687 C11.6361398,0.0339759987 13.760486,-0.306022468 15.7063836,0.287520227 C19.4086893,1.42082647 20.7411387,5.25030481 19.6085567,8.59538613 C18.979179,10.3197719 17.9471453,11.8829466 16.5915106,13.1651694 C14.6632793,14.9456454 12.5377138,16.5178915 10.2528586,17.8537669 L10.0054038,18 L9.74843138,17.8537669 Z" id="Path_33961"></path>
            <path d="M13.9361294,4.0530216 C15.0575055,4.39332197 15.8542653,5.34972367 15.9538384,6.47500671" id="Path_33964" opacity="0.400000006"></path>
        </g>
    </g>
</svg>