<?xml version="1.0" encoding="UTF-8"?>
<svg width="24px" height="24px" viewBox="0 0 24 24" version="1.1" xmlns="http://www.w3.org/2000/svg" xmlns:xlink="http://www.w3.org/1999/xlink">
    <!-- Generator: Sketch 64 (93537) - https://sketch.com -->
    <title>@1xIconly/Two-tone/Category</title>
    <desc>Created with Sketch.</desc>
    <g id="Iconly/Two-tone/Category" stroke="none" stroke-width="1" fill="none" fill-rule="evenodd" stroke-linecap="round" stroke-linejoin="round">
        <g id="Category" transform="translate(2.000000, 2.000000)" stroke="#200E32" stroke-width="1.5">
            <path d="M14.2855094,9.76996262e-15 L17.5521036,9.76996262e-15 C18.9036211,9.76996262e-15 20,1.10589743 20,2.47018211 L20,5.76410278 C20,7.12735391 18.9036211,8.23428489 17.5521036,8.23428489 L14.2855094,8.23428489 C12.9329672,8.23428489 11.8365883,7.12735391 11.8365883,5.76410278 L11.8365883,2.47018211 C11.8365883,1.10589743 12.9329672,9.76996262e-15 14.2855094,9.76996262e-15 Z" id="Stroke-1" opacity="0.400000006"></path>
            <path d="M2.44892104,9.76996262e-15 L5.71449064,9.76996262e-15 C7.06703281,9.76996262e-15 8.16341169,1.10589743 8.16341169,2.47018211 L8.16341169,5.76410278 C8.16341169,7.12735391 7.06703281,8.23428489 5.71449064,8.23428489 L2.44892104,8.23428489 C1.09637888,8.23428489 3.55271368e-15,7.12735391 3.55271368e-15,5.76410278 L3.55271368e-15,2.47018211 C3.55271368e-15,1.10589743 1.09637888,9.76996262e-15 2.44892104,9.76996262e-15 Z" id="Stroke-3"></path>
            <path d="M2.44892104,11.7657151 L5.71449064,11.7657151 C7.06703281,11.7657151 8.16341169,12.8716125 8.16341169,14.2369308 L8.16341169,17.5298179 C8.16341169,18.8941026 7.06703281,20 5.71449064,20 L2.44892104,20 C1.09637888,20 3.55271368e-15,18.8941026 3.55271368e-15,17.5298179 L3.55271368e-15,14.2369308 C3.55271368e-15,12.8716125 1.09637888,11.7657151 2.44892104,11.7657151 Z" id="Stroke-5"></path>
            <path d="M14.2855094,11.7657151 L17.5521036,11.7657151 C18.9036211,11.7657151 20,12.8716125 20,14.2369308 L20,17.5298179 C20,18.8941026 18.9036211,20 17.5521036,20 L14.2855094,20 C12.9329672,20 11.8365883,18.8941026 11.8365883,17.5298179 L11.8365883,14.2369308 C11.8365883,12.8716125 12.9329672,11.7657151 14.2855094,11.7657151 Z" id="Stroke-7"></path>
        </g>
    </g>
</svg>